<mxfile host="65bd71144e">
    <diagram id="R-98KPxX4FdMilOhkYzj" name="Page-1">
        <mxGraphModel dx="746" dy="568" grid="1" gridSize="10" guides="1" tooltips="1" connect="1" arrows="1" fold="1" page="1" pageScale="1" pageWidth="827" pageHeight="1169" math="0" shadow="0">
            <root>
                <mxCell id="0"/>
                <mxCell id="1" parent="0"/>
                <mxCell id="3" style="edgeStyle=none;html=1;" edge="1" parent="1" source="2" target="4">
                    <mxGeometry relative="1" as="geometry">
                        <mxPoint x="200" y="200" as="targetPoint"/>
                    </mxGeometry>
                </mxCell>
                <mxCell id="5" style="edgeStyle=none;html=1;entryX=0.578;entryY=0.02;entryDx=0;entryDy=0;entryPerimeter=0;" edge="1" parent="1" source="2" target="6">
                    <mxGeometry relative="1" as="geometry">
                        <mxPoint x="385" y="170" as="targetPoint"/>
                    </mxGeometry>
                </mxCell>
                <mxCell id="2" value="Animal" style="html=1;" vertex="1" parent="1">
                    <mxGeometry x="330" y="80" width="110" height="50" as="geometry"/>
                </mxCell>
                <mxCell id="11" style="edgeStyle=none;html=1;entryX=0.5;entryY=0;entryDx=0;entryDy=0;" edge="1" parent="1" source="4" target="8">
                    <mxGeometry relative="1" as="geometry"/>
                </mxCell>
                <mxCell id="13" style="edgeStyle=none;html=1;entryX=0.5;entryY=0;entryDx=0;entryDy=0;" edge="1" parent="1" source="4" target="9">
                    <mxGeometry relative="1" as="geometry"/>
                </mxCell>
                <mxCell id="4" value="Mamífero" style="html=1;" vertex="1" parent="1">
                    <mxGeometry x="130" y="190" width="110" height="50" as="geometry"/>
                </mxCell>
                <mxCell id="12" style="edgeStyle=none;html=1;" edge="1" parent="1" source="6" target="10">
                    <mxGeometry relative="1" as="geometry"/>
                </mxCell>
                <mxCell id="14" style="edgeStyle=none;html=1;entryX=0.5;entryY=0;entryDx=0;entryDy=0;" edge="1" parent="1" source="6" target="9">
                    <mxGeometry relative="1" as="geometry"/>
                </mxCell>
                <mxCell id="6" value="Ovíparo" style="html=1;" vertex="1" parent="1">
                    <mxGeometry x="500" y="190" width="110" height="50" as="geometry"/>
                </mxCell>
                <mxCell id="8" value="Gato" style="html=1;" vertex="1" parent="1">
                    <mxGeometry x="130" y="360" width="110" height="50" as="geometry"/>
                </mxCell>
                <mxCell id="9" value="Ornitorrinco" style="html=1;" vertex="1" parent="1">
                    <mxGeometry x="350" y="360" width="110" height="50" as="geometry"/>
                </mxCell>
                <mxCell id="10" value="Pollo" style="html=1;" vertex="1" parent="1">
                    <mxGeometry x="540" y="360" width="110" height="50" as="geometry"/>
                </mxCell>
            </root>
        </mxGraphModel>
    </diagram>
</mxfile>
